<?xml version="1.0" encoding="UTF-8"?>
<!DOCTYPE svg PUBLIC "-//W3C//DTD SVG 1.1//EN" "http://www.w3.org/Graphics/SVG/1.1/DTD/svg11.dtd">
<!-- Creator: CorelDRAW 2020 (64-Bit) -->
<svg xmlns="http://www.w3.org/2000/svg" xml:space="preserve" width="178.71mm" height="101.527mm" version="1.1" style="shape-rendering:geometricPrecision; text-rendering:geometricPrecision; image-rendering:optimizeQuality; fill-rule:evenodd; clip-rule:evenodd"
viewBox="0 0 17687.15 10048.27"
 xmlns:xlink="http://www.w3.org/1999/xlink"
 xmlns:xodm="http://www.corel.com/coreldraw/odm/2003">
 <defs>
  <style type="text/css">
   <![CDATA[
    .fil0 {fill:#332C2B}
   ]]>
  </style>
 </defs>
 <g id="图层_x0020_1">
  <metadata id="CorelCorpID_0Corel-Layer"/>
  <path class="fil0" d="M13659.11 1501.34c-684.23,0 -1304.81,272.09 -1759.79,713.83l-286 268.28 -996.94 -1118.37 256.63 -240.73 0.3 0.32c368.46,-353.47 800,-636.7 1273.94,-828.94 470.08,-190.68 980.6,-295.73 1511.86,-295.73 1112.15,0 2119.13,450.9 2848.14,1179.91 729,729 1179.91,1735.99 1179.91,2848.14 0,1112.15 -450.9,2119.13 -1179.91,2848.14 -729,729 -1735.99,1179.91 -2848.14,1179.91 -531.26,0 -1041.77,-105.05 -1511.86,-295.73 -467.02,-189.43 -892.89,-467.24 -1257.78,-813.53l-16.46 -15.09 -1932.59 -1812.89c-21.95,-20.78 -43.52,-42.2 -64.51,-64.51 -11.04,-11.73 -21.76,-23.63 -32.34,-35.62 -10.58,11.99 -21.3,23.89 -32.33,35.62 -20.99,22.31 -42.56,43.73 -64.55,64.46l-1932.55 1812.94 -16.46 15.09c-364.89,346.29 -790.76,624.1 -1257.78,813.53 -470.08,190.68 -980.6,295.73 -1511.86,295.73 -1112.15,0 -2119.13,-450.9 -2848.14,-1179.91 -729,-729 -1179.91,-1735.99 -1179.91,-2848.14 0,-1112.15 450.9,-2119.13 1179.91,-2848.14 729,-729 1735.99,-1179.91 2848.14,-1179.91 531.26,0 1041.77,105.05 1511.86,295.73 473.93,192.24 905.48,475.48 1273.94,828.94l0.3 -0.32 1932.59 1812.87c34.16,32.15 66.37,65.56 96.84,100.02 30.47,-34.46 62.69,-67.87 96.85,-100.02l688.43 -645.78 1059.58 1059.59 -721.71 677 1932.59 1812.89c454.98,441.74 1075.56,713.83 1759.79,713.83 1395.46,0 2526.71,-1131.25 2526.71,-2526.71 0,-1395.46 -1131.25,-2526.71 -2526.71,-2526.71zm-2875.78 8150.02c54.96,0 99.51,44.55 99.51,99.51 0,54.96 -44.55,99.51 -99.51,99.51 -54.96,0 -99.51,-44.55 -99.51,-99.51 0,-54.96 44.55,-99.51 99.51,-99.51zm-9620.43 362l0 -524.97c0,-19.28 15.64,-34.92 34.92,-34.92l232.67 0c24.37,0 46.48,1.33 66.27,3.96 20.58,2.74 38.24,6.98 52.96,12.67 31.67,12.25 56.85,33.66 75.47,64.17 8.89,14.56 15.61,30.11 20.13,46.6 4.53,16.51 6.81,33.39 6.81,50.61 0,22.63 -3.85,43.94 -11.5,63.89 -7.73,20.14 -19.16,38.23 -34.22,54.21 -15.25,16.18 -34.34,29.27 -57.22,39.26 6.39,6.62 12.63,13.63 18.68,20.99 10.63,12.95 20.75,26.88 30.29,41.74l90.93 143.11c10.31,16.27 5.49,37.84 -10.78,48.15 -5.81,3.68 -12.28,5.43 -18.69,5.42l-86.77 0.03c-12.91,0 -24.19,-7.02 -30.23,-17.44l-68.65 -108.04 -1.39 -2.4c-8.74,-13.66 -17.07,-26.21 -24.9,-37.56 -8.23,-11.95 -15.45,-21.84 -21.59,-29.7 -5.93,-7.4 -11.23,-13.46 -15.91,-18.11 -4.09,-4.05 -7.72,-7.11 -10.86,-9.16 -3.51,-2.22 -7.14,-4.17 -10.81,-5.78 -3.58,-1.57 -7.04,-2.78 -10.27,-3.59 -2.19,-0.34 -5.4,-0.64 -9.62,-0.9 -4.94,-0.31 -11.86,-0.48 -20.75,-0.48l-45.5 0 0 198.24c0,19.28 -15.64,34.92 -34.92,34.92l-69.65 0c-19.28,0 -34.92,-15.64 -34.92,-34.92zm139.48 -328.2l114.17 0c14.91,0 27.53,-0.69 37.87,-2.07 9.53,-1.27 17.68,-3.17 24.43,-5.65l1.48 -0.5c4.89,-1.89 9.14,-4.25 12.71,-7 3.61,-2.91 6.61,-6.19 8.92,-9.84l0.17 -0.26c2.86,-4.5 4.99,-9.04 6.33,-13.57 1.32,-4.44 1.98,-9.35 1.98,-14.68 0,-7.71 -1.25,-14.43 -3.73,-20.11 -2.39,-5.44 -6.21,-10.53 -11.42,-15.18 -5,-4.45 -12.02,-7.96 -20.96,-10.47 -10.94,-3.07 -24.58,-4.61 -40.9,-4.61l-131.04 0 0 103.94zm1817.47 328.2l0 -524.97c0,-19.28 15.64,-34.92 34.92,-34.92l69.66 0c19.28,0 34.92,15.64 34.92,34.92l0 181.37 201.45 0 0 -181.37c0,-19.28 15.64,-34.92 34.92,-34.92l69.66 0c19.28,0 34.92,15.64 34.92,34.92l0 524.97c0,19.28 -15.64,34.92 -34.92,34.92l-69.66 0c-19.28,0 -34.92,-15.64 -34.92,-34.92l0 -212.17 -201.45 0 0 212.17c0,19.28 -15.64,34.92 -34.92,34.92l-69.66 0c-19.28,0 -34.92,-15.64 -34.92,-34.92zm1964.28 0l0 -524.97c0,-19.28 15.64,-34.92 34.92,-34.92l69.66 0c19.28,0 34.92,15.64 34.92,34.92l0 524.97c0,19.28 -15.64,34.92 -34.92,34.92l-69.66 0c-19.28,0 -34.92,-15.64 -34.92,-34.92zm1617.23 0l0 -524.97c0,-19.28 15.64,-34.92 34.92,-34.92l71.37 0c13.1,0 24.53,7.22 30.49,17.9l210.04 314.2 0 -297.19c0,-19.28 15.64,-34.92 34.92,-34.92l66.72 0c19.28,0 34.92,15.64 34.92,34.92l0 524.97c0,19.28 -15.64,34.92 -34.92,34.92l-71.37 0c-13.1,0 -24.53,-7.22 -30.49,-17.9l-210.03 -314.2 0 297.19c0,19.28 -15.64,34.92 -34.92,34.92l-66.73 0c-19.28,0 -34.92,-15.64 -34.92,-34.92zm1957.69 0l0 -524.97c0,-19.28 15.64,-34.92 34.92,-34.92l379.06 0c19.28,0 34.92,15.64 34.92,34.92l0 61.59c0,19.28 -15.64,34.92 -34.92,34.92l-274.5 0 0 91.47 254.7 0c19.28,0 34.92,15.64 34.92,34.92l0 61.59c0,19.28 -15.64,34.92 -34.92,34.92l-254.7 0 0 109.07 286.97 0c19.28,0 34.92,15.64 34.92,34.92l0 61.59c0,19.28 -15.64,34.92 -34.92,34.92l-391.53 0c-19.28,0 -34.92,-15.64 -34.92,-34.92zm3744.04 0l0 -524.97c0,-19.28 15.64,-34.92 34.92,-34.92l69.66 0c19.28,0 34.92,15.64 34.92,34.92l0 428.47 223.17 0c19.28,0 34.92,15.64 34.92,34.92l0 61.59c0,19.28 -15.64,34.92 -34.92,34.92l-327.74 0c-19.28,0 -34.92,-15.64 -34.92,-34.92zm1782.08 -14.02l200.77 -523.36c5.29,-13.92 18.55,-22.48 32.6,-22.48l76.38 -0.03c15.27,0 28.25,9.81 32.99,23.46l213.07 523.34c7.22,17.84 -1.39,38.19 -19.23,45.42 -4.3,1.74 -8.73,2.55 -13.09,2.55l-79.06 0.04c-15.48,0 -28.6,-10.08 -33.19,-24.03l-51.56 -135.08 -172.49 0 -48.64 135.92c-5.09,14.27 -18.53,23.17 -32.87,23.18l-73.68 0.01c-19.28,0 -34.92,-15.64 -34.92,-34.92 0,-4.99 1.05,-9.73 2.93,-14.02zm233.21 -236.45l78.38 0 -39.29 -104.65 -39.08 104.65zm1733.52 250.48l0 -524.97c0,-19.28 15.64,-34.92 34.92,-34.92l196.99 0c21.55,0 41.48,1.5 59.77,4.49 18.97,3.11 35.88,7.92 50.68,14.39 15.33,6.73 29.09,15.36 41.22,25.84 12.03,10.42 22.43,22.65 31.13,36.66 8.69,13.8 15.18,27.96 19.48,42.4l0.48 1.8c4.11,14.39 6.17,28.94 6.17,43.63 0,14.37 -1.99,28.43 -5.92,42.13l-1.17 3.43c-3.93,12.55 -9.37,24.53 -16.31,35.88 -5.11,8.35 -11.06,16.19 -17.85,23.5 13.22,9.4 24.62,20.44 34.15,33.05l0.6 0.82c10.56,14.01 18.56,29.44 23.96,46.16 5.46,16.89 8.19,34.75 8.19,53.44 0,14.68 -1.64,29.11 -4.88,43.31 -3.19,14.02 -8.03,27.59 -14.44,40.66 -6.26,12.74 -13.37,24.17 -21.33,34.25l0.09 0.07c-8.16,10.36 -17.38,19.4 -27.62,27.09l-0.16 0.12c-9.72,7.27 -20.5,13.57 -32.24,18.86 -11.55,5.22 -24.01,9.54 -37.31,12.94 -12.82,3.26 -27.34,5.74 -43.56,7.41 -15.91,1.64 -32.52,2.47 -49.84,2.47l-200.29 0c-19.28,0 -34.92,-15.64 -34.92,-34.92zm139.49 -339.19l78.6 0c15.25,0 27.41,-0.43 36.43,-1.26 8.7,-0.8 15.3,-1.89 19.72,-3.23l0.29 -0.08c5.62,-1.71 10.29,-3.77 13.96,-6.19 3.16,-2.08 5.74,-4.48 7.7,-7.18l0.07 -0.09c1.99,-2.86 3.59,-6.18 4.68,-9.92 1.24,-4.23 1.87,-9.4 1.87,-15.49 0,-6.01 -0.59,-11.22 -1.78,-15.57 -1.16,-4.25 -2.9,-8.2 -5.21,-11.82l-0.2 -0.33c-1.99,-3.02 -4.27,-5.56 -6.83,-7.52 -2.71,-2.07 -6,-3.73 -9.82,-4.93l-0.13 -0.04c-5.71,-1.76 -13.82,-3.15 -24.22,-4.1 -11.29,-1.03 -26.34,-1.55 -45.09,-1.55l-70.05 0 0 89.27zm0 242.69l95.83 0c11.64,0 20.6,-0.17 26.79,-0.5l0.6 -0.03c6.04,-0.33 10.59,-0.78 13.61,-1.35l0.43 -0.07c5.94,-1.12 11.39,-2.52 16.27,-4.27 4.41,-1.57 8.24,-3.37 11.39,-5.33 2.56,-1.59 4.98,-3.65 7.19,-6.1 2.59,-2.87 4.96,-6.26 7.05,-10.13l0.81 -1.44c1.55,-3.13 2.8,-6.71 3.72,-10.68 1.09,-4.67 1.63,-9.93 1.63,-15.74 0,-6.68 -0.75,-12.6 -2.27,-17.71 -1.47,-4.98 -3.63,-9.52 -6.47,-13.59l-0.11 -0.16c-2.86,-4.09 -6.14,-7.5 -9.81,-10.18 -3.85,-2.81 -8.58,-5.15 -14.15,-6.97l-0.13 -0.04c-6.7,-2.18 -15.24,-3.89 -25.52,-5.07 -11.18,-1.28 -24.64,-1.92 -40.31,-1.92l-86.55 0 0 111.26zm-12675.29 -4441.6l0 -966.23 -966.24 0 0 -911.28 966.24 0 0 -966.24 911.28 0 0 966.24 966.23 0 0 911.28 -966.23 0 0 966.23 -911.28 0zm8665.01 -1877.51l2665.75 0 0 911.28 -2665.75 0 0 -911.28zm-8253.07 -2096.4c684.23,0 1304.81,272.09 1759.79,713.83l1932.59 1812.87 -1932.59 1812.89c-454.98,441.74 -1075.56,713.83 -1759.79,713.83 -1395.46,0 -2526.71,-1131.25 -2526.71,-2526.71 0,-1395.46 1131.25,-2526.71 2526.71,-2526.71z"/>
 </g>
</svg>
